<?xml version="1.0" encoding="UTF-8"?>
<svg id="Layer_1" data-name="Layer 1" xmlns="http://www.w3.org/2000/svg" viewBox="0 0 1755.59 227.08">
  <path d="M1695.66,72.57c0-1.69-.71-2.85-2.11-3.43-.77-.32-1.92-.47-3.53-.47h-4.38c-.15,0-.28.12-.28.28v12.53c0,.15.12.28.28.28h2.21c.15,0,.28-.12.28-.28v-4.65h1.46c1.12,0,1.89.12,2.32.36.69.41,1.05,1.29,1.05,2.63v1.02s.05.43.05.43c.01.06.02.11.03.15l.03.13c.03.12.14.21.27.21h2.07c.1,0,.19-.05.24-.13.05-.08.05-.19.01-.27l-.08-.15s-.06-.13-.08-.55c-.02-.32-.03-.63-.03-.91v-.92c0-.68-.24-1.39-.73-2.09-.31-.46-.74-.81-1.28-1.05.33-.11.62-.24.86-.4.9-.58,1.35-1.49,1.35-2.71ZM1688.12,70.73h1.61c1.17,0,2.03.14,2.54.43.47.26.69.78.69,1.59s-.37,1.4-1.12,1.7c-.43.17-1.1.26-2,.26h-1.72v-3.99Z"/>
  <path d="M1690.23,63.59c-3.2,0-5.97,1.15-8.24,3.41-2.27,2.27-3.42,5.05-3.42,8.25s1.14,6.02,3.39,8.3c2.26,2.28,5.04,3.44,8.26,3.44s6.01-1.16,8.28-3.44c2.27-2.28,3.42-5.08,3.42-8.3s-1.15-5.98-3.42-8.25c-2.27-2.26-5.06-3.41-8.28-3.41ZM1690.23,84.87c-2.64,0-4.91-.95-6.75-2.81-1.84-1.87-2.77-4.16-2.77-6.8s.94-4.9,2.78-6.75c1.85-1.87,4.12-2.81,6.74-2.81s4.9.95,6.75,2.81c1.84,1.85,2.78,4.13,2.78,6.75s-.93,4.94-2.78,6.8c-1.85,1.87-4.12,2.81-6.75,2.81Z"/>
  <path d="M1694.98,0H60.61C27.19,0,0,27.19,0,60.61v105.86c0,33.42,27.19,60.61,60.61,60.61h1634.37c33.42,0,60.61-27.19,60.61-60.61V60.61c0-33.42-27.19-60.61-60.61-60.61ZM1740.71,166.47c0,25.21-20.51,45.72-45.72,45.72H60.61c-25.21,0-45.72-20.51-45.72-45.72V60.61c0-25.21,20.51-45.72,45.72-45.72h1634.37c25.21,0,45.72,20.51,45.72,45.72v105.86Z"/>
  <path d="M165.91,64.49h-10.13c-1.39,0-2.52,1.08-2.52,2.4v71.73l-64.13-73.26c-.48-.55-1.19-.86-1.94-.86h-12.18c-1.39,0-2.52,1.08-2.52,2.4v91.34c0,1.32,1.13,2.4,2.52,2.4h10.13c1.39,0,2.52-1.08,2.52-2.4v-71.76l64.54,73.3c.48.54,1.18.86,1.93.86h11.77c1.39,0,2.52-1.08,2.52-2.4v-91.34c0-1.32-1.13-2.4-2.52-2.4Z"/>
  <path d="M207.25,64.49h-10.13c-1.39,0-2.52,1.08-2.52,2.4v91.34c0,1.32,1.13,2.4,2.52,2.4h10.13c1.39,0,2.52-1.08,2.52-2.4v-91.34c0-1.32-1.13-2.4-2.52-2.4Z"/>
  <path d="M283.18,104.87l46.4-36.13c.83-.65,1.14-1.73.77-2.68-.36-.94-1.31-1.57-2.36-1.57h-14.65c-.58,0-1.15.19-1.6.55l-58.99,46.16v-44.31c0-1.32-1.13-2.4-2.52-2.4h-10.13c-1.39,0-2.52,1.08-2.52,2.4v91.34c0,1.32,1.13,2.4,2.52,2.4h10.13c1.39,0,2.52-1.08,2.52-2.4v-29.68l18.57-14.24,43.71,45.54c.48.5,1.15.78,1.86.78h14.37c.99,0,1.89-.55,2.29-1.41.42-.88.24-1.9-.44-2.61l-49.94-51.73Z"/>
  <path d="M476.84,109.28c7.43-3.87,11.66-10.85,11.66-19.37,0-15.92-11.13-25.42-29.76-25.42h-55.58c-1.39,0-2.52,1.08-2.52,2.4v91.34c0,1.32,1.13,2.4,2.52,2.4h54.34c17.34,0,34.82-8.81,34.82-28.49,0-10.53-5.76-18.97-15.49-22.85ZM415.81,104.15v-26.17h41.01c11.42,0,16.51,3.8,16.51,12.32,0,9.58-6.15,13.85-19.93,13.85h-37.59ZM476.34,132.13c0,12.4-11.14,15-20.48,15h-40.06v-29.49h42.52c12.63,0,18.01,4.33,18.01,14.49Z"/>
  <path d="M597.13,147.13h-66.2v-29.49h62.64c1.39,0,2.52-1.07,2.52-2.4v-8.7c0-1.32-1.13-2.4-2.52-2.4h-62.64v-26.17h65.1c1.39,0,2.52-1.07,2.52-2.4v-8.7c0-1.32-1.13-2.4-2.52-2.4h-77.75c-1.39,0-2.52,1.08-2.52,2.4v91.34c0,1.32,1.13,2.4,2.52,2.4h78.85c1.39,0,2.52-1.08,2.52-2.4v-8.7c0-1.32-1.13-2.4-2.52-2.4Z"/>
  <path d="M713.34,64.49h-10.13c-1.39,0-2.52,1.08-2.52,2.4v71.73l-64.13-73.26c-.48-.55-1.19-.86-1.94-.86h-12.18c-1.39,0-2.52,1.08-2.52,2.4v91.34c0,1.32,1.13,2.4,2.52,2.4h10.13c1.39,0,2.52-1.08,2.52-2.4v-71.76l64.54,73.3c.48.54,1.18.86,1.93.86h11.77c1.39,0,2.52-1.08,2.52-2.4v-91.34c0-1.32-1.13-2.4-2.52-2.4Z"/>
  <path d="M820.93,64.49h-86.79c-1.39,0-2.52,1.08-2.52,2.4v8.7c0,1.32,1.13,2.4,2.52,2.4h35.81v80.25c0,1.32,1.13,2.4,2.52,2.4h10.13c1.39,0,2.52-1.08,2.52-2.4v-80.25h35.81c1.39,0,2.52-1.07,2.52-2.4v-8.7c0-1.32-1.13-2.4-2.52-2.4Z"/>
  <path d="M922.22,147.13h-66.2v-29.49h62.64c1.39,0,2.52-1.07,2.52-2.4v-8.7c0-1.32-1.13-2.4-2.52-2.4h-62.64v-26.17h65.1c1.39,0,2.52-1.07,2.52-2.4v-8.7c0-1.32-1.13-2.4-2.52-2.4h-77.75c-1.39,0-2.52,1.08-2.52,2.4v91.34c0,1.32,1.13,2.4,2.52,2.4h78.85c1.39,0,2.52-1.08,2.52-2.4v-8.7c0-1.32-1.13-2.4-2.52-2.4Z"/>
  <path d="M1019.69,147.13h-59.49v-80.25c0-1.32-1.13-2.4-2.52-2.4h-10.13c-1.39,0-2.52,1.08-2.52,2.4v91.34c0,1.32,1.13,2.4,2.52,2.4h72.14c1.39,0,2.52-1.08,2.52-2.4v-8.7c0-1.32-1.13-2.4-2.52-2.4Z"/>
  <path d="M1135.36,105.46h0c-25.22-3.93-33.62-6.8-33.62-16.06,0-8.34,9.87-13.72,25.13-13.72,18.16,0,27.11,5.56,28.15,17.5.11,1.23,1.21,2.2,2.51,2.2h10.13c.67,0,1.32-.26,1.79-.71.48-.46.75-1.1.73-1.76-.61-19.53-16.4-30.73-43.31-30.73s-41.12,10.8-41.12,28.88,18.19,23.76,37.85,26.67l3.44.51c16.11,2.37,30.03,4.42,30.03,15.42,0,13.03-14.86,15.77-27.32,15.77-21.1,0-30.29-6.26-31.71-21.61-.12-1.25-1.19-2.19-2.51-2.19h-10.13c-.68,0-1.34.27-1.82.74-.48.48-.74,1.14-.7,1.8,1.43,23.38,16.76,34.75,46.87,34.75,8.04,0,19.56-1.08,28.8-6.2,9.63-5.34,14.51-13.66,14.51-24.73,0-20.58-22.69-24.17-37.7-26.54Z"/>
  <path d="M1272.24,64.49h-86.79c-1.39,0-2.52,1.08-2.52,2.4v8.7c0,1.32,1.13,2.4,2.52,2.4h35.81v80.25c0,1.32,1.13,2.4,2.52,2.4h10.13c1.39,0,2.52-1.07,2.52-2.4v-80.25h35.81c1.39,0,2.52-1.08,2.52-2.4v-8.7c0-1.32-1.13-2.4-2.52-2.4Z"/>
  <path d="M1380.93,64.49h-10.13c-1.39,0-2.52,1.08-2.52,2.4v56.03c0,18.09-9.86,26.52-31.02,26.52s-31.02-8.43-31.02-26.52v-56.03c0-1.32-1.13-2.4-2.52-2.4h-10.13c-1.39,0-2.52,1.08-2.52,2.4v56.03c0,9.9,0,40.01,46.19,40.01s46.19-30.11,46.19-40.01v-56.03c0-1.32-1.13-2.4-2.52-2.4Z"/>
  <path d="M1456.35,64.49h-47.5c-1.39,0-2.52,1.08-2.52,2.4v91.34c0,1.32,1.13,2.4,2.52,2.4h49.01c26.89,0,44.27-18.87,44.27-48.07s-16.68-48.07-45.78-48.07ZM1486.14,112.56c0,15.77-5.24,34.58-30.2,34.58h-34.44v-69.15h34.44c20.6,0,30.2,10.99,30.2,34.58Z"/>
  <path d="M1538.62,64.49h-10.13c-1.39,0-2.52,1.08-2.52,2.4v91.34c0,1.32,1.13,2.4,2.52,2.4h10.13c1.39,0,2.52-1.07,2.52-2.4v-91.34c0-1.32-1.13-2.4-2.52-2.4Z"/>
  <path d="M1619.1,62.18c-27.69,0-55.63,15.57-55.63,50.37s27.94,50.37,55.63,50.37,55.63-15.58,55.63-50.37-27.94-50.37-55.63-50.37ZM1658.75,112.56c0,27.22-21.36,36.88-39.64,36.88s-39.64-9.66-39.64-36.88,21.35-36.88,39.64-36.88,39.64,9.66,39.64,36.88Z"/>
</svg>